# xmcd
#
# Track frame offsets:
#	150
#	16147
#	29870
#	45917
#	60673
#	75220
#	94713
#	113348
#	129326
#	144443
#	167506
#	182858
#	201231
#	217517
#
# Disc length: 3090 seconds
#
# Revision: 0
# Processed by: cddbd v1.5.2PL0 Copyright (c) Steve Scherf et al.
# Submitted via: EZCDAudioConverter 2.2.0.1
#
DISCID=a50c100e
DTITLE=Wolfe Brothers, The - Nothin' But Trouble
DYEAR=2014
DGENRE=Country
TTITLE0=Nothin' But Trouble
TTITLE1=That Kinda Night
TTITLE2=You Got To Me
TTITLE3=I Know How To Love You
TTITLE4=Miss Somebody
TTITLE5=Special Kind Of Crazy
TTITLE6=Born And Bred
TTITLE7=Nothin' To Do, All Day To Do It
TTITLE8=Whiskey Tastes Like Water
TTITLE9=Red Dress
TTITLE10=Beer Tastes Better
TTITLE11=The Line
TTITLE12=The Kind Of Trouble I Wanna Be In
TTITLE13=One Beer At A Time
EXTD=
EXTT0=
EXTT1=
EXTT2=
EXTT3=
EXTT4=
EXTT5=
EXTT6=
EXTT7=
EXTT8=
EXTT9=
EXTT10=
EXTT11=
EXTT12=
EXTT13=
PLAYORDER=
